<?xml version="1.0" encoding="utf-8"?>
<!-- Generator: Adobe Illustrator 19.0.0, SVG Export Plug-In . SVG Version: 6.00 Build 0)  -->
<svg version="1.1" id="Layer_1" xmlns="http://www.w3.org/2000/svg" xmlns:xlink="http://www.w3.org/1999/xlink" x="0px" y="0px"
	 viewBox="0 0 51.7 51.7" style="enable-background:new 0 0 51.7 51.7;" xml:space="preserve">
<style type="text/css">
	.st0{fill:#FFFFFF;}
	.st1{fill:#E95420;}
	.st2{fill:#333333;}
</style>
<rect id="XMLID_8_" x="8.4" y="3.5" class="st0" width="35.1" height="25.7"/>
<path id="XMLID_11_" class="st1" d="M43.6,1H8.3c-1,0-1.8,0.8-1.8,1.8v25.4c0,1,0.8,1.8,1.8,1.8h35.3c1,0,1.8-0.8,1.8-1.8V2.8
	C45.3,1.8,44.6,1,43.6,1L43.6,1z M25.9,16.3L12.9,4.5H39L25.9,16.3z M10.1,6.7l11.1,10l-11.1,8V6.7z M23.8,19.1l0.9,0.8
	c0.3,0.3,0.8,0.5,1.2,0.5c0.4,0,0.9-0.2,1.2-0.5l0.9-0.8l10.1,7.3H13.8L23.8,19.1z M30.7,16.7l11.1-10v18L30.7,16.7z"/>
<g id="XMLID_1_">
	<g id="XMLID_66_">
		<path id="XMLID_74_" class="st2" d="M9.9,50.2l-3.1-5.9h-2v5.9H1.1V33.9H7c0.9,0,1.7,0.1,2.4,0.2c0.8,0.2,1.4,0.4,2,0.8
			c0.6,0.4,1,0.9,1.3,1.6c0.3,0.6,0.5,1.5,0.5,2.4c0,1.2-0.3,2.2-0.8,3s-1.2,1.4-2.1,1.7l3.7,6.5H9.9z M4.8,41.4h1.9
			c1,0,1.7-0.2,2.2-0.6c0.5-0.4,0.8-1,0.8-1.8c0-0.8-0.3-1.4-0.8-1.7c-0.5-0.3-1.2-0.5-2.2-0.5H4.8V41.4z"/>
		<path id="XMLID_72_" class="st2" d="M21.3,50.5c-1,0-2-0.2-2.9-0.5c-0.9-0.4-1.7-0.9-2.4-1.6c-0.7-0.7-1.2-1.6-1.6-2.6
			c-0.4-1-0.6-2.2-0.6-3.6c0-1.3,0.2-2.6,0.6-3.6s1-2,1.7-2.7c0.7-0.7,1.5-1.3,2.4-1.7c0.9-0.4,1.9-0.6,2.9-0.6c1,0,2,0.2,2.8,0.6
			c0.8,0.4,1.5,0.9,2.1,1.5l-1.9,2.3c-0.4-0.4-0.9-0.7-1.3-0.9c-0.5-0.2-1-0.4-1.6-0.4c-0.5,0-1.1,0.1-1.6,0.4
			c-0.5,0.2-0.9,0.6-1.3,1c-0.4,0.4-0.6,1-0.8,1.6c-0.2,0.6-0.3,1.4-0.3,2.2c0,1.7,0.4,3,1.1,3.9c0.7,0.9,1.7,1.4,2.9,1.4
			c0.7,0,1.3-0.1,1.8-0.4c0.5-0.3,1-0.7,1.4-1.1l1.9,2.3C25.2,49.7,23.5,50.5,21.3,50.5z"/>
		<path id="XMLID_69_" class="st2" d="M27.2,33.9h5.6c0.9,0,1.7,0.1,2.5,0.3s1.5,0.5,2,0.9c0.6,0.4,1,0.9,1.4,1.6
			c0.3,0.7,0.5,1.5,0.5,2.5c0,0.9-0.2,1.8-0.5,2.5c-0.3,0.7-0.8,1.3-1.4,1.7c-0.6,0.4-1.3,0.8-2,1s-1.6,0.3-2.4,0.3h-2v5.5h-3.7
			V33.9z M32.6,41.8c2,0,3-0.9,3-2.6c0-0.8-0.3-1.4-0.8-1.8s-1.3-0.5-2.3-0.5h-1.7v4.9H32.6z"/>
		<path id="XMLID_67_" class="st2" d="M43,37h-4.5v-3.1h12.6V37h-4.5v13.2H43V37z"/>
	</g>
</g>
</svg>
